# xmcd CD database file generated by OrangeCD 4.3
#
# Track frame offsets:
#	150
#	16644
#	37490
#	55735
#	75535
#	93274
#	112119
#	129698
#	148576
#	167261
#	185820
#	207251
#	222950
#
# Disc length: 3195 seconds
#
# Revision: 2
# Processed by: cddbd v1.4PL0 Copyright (c) Steve Scherf et al.
# Submitted via: OrangeCD 4.3
#
DISCID=b60c790d
DTITLE=Mr. Shadow - The Mahem Clique 2
DYEAR=2002
DGENRE=chicano rap
TTITLE0=Body Moves II
TTITLE1=Too High 'Till I Die
TTITLE2=If You Iz A Ho...
TTITLE3=Gangstaz
TTITLE4=Keepin' It Real
TTITLE5=Till The Day We D.I.E.
TTITLE6=San Diego In Effect
TTITLE7=Low Pro Diss #1
TTITLE8=Sun Up To Sun Down
TTITLE9=SS-Best in the West
TTITLE10=Ain't A Damn Thang Changed
TTITLE11=Player 2
TTITLE12=Too Excited
EXTD=
EXTT0=
EXTT1=
EXTT2=
EXTT3=
EXTT4=
EXTT5=
EXTT6=
EXTT7=
EXTT8=
EXTT9=
EXTT10=
EXTT11=
EXTT12=
PLAYORDER=
